<?xml version="1.0" encoding="UTF-8"?>
<svg version="1.1" xmlns="http://www.w3.org/2000/svg" width="84" height="84">
<path d="M0 0 C27.72 0 55.44 0 84 0 C84 27.72 84 55.44 84 84 C56.28 84 28.56 84 0 84 C0 56.28 0 28.56 0 0 Z " fill="#3F8970" transform="translate(0,0)"/>
<path d="M0 0 C1.02867188 -0.02449219 2.05734375 -0.04898437 3.1171875 -0.07421875 C9.27020479 -0.09800619 12.98829468 0.19139292 17.625 4.375 C20.72389884 9.02334825 19.95355925 13.78342989 19.9375 19.25 C19.95361328 20.33925781 19.96972656 21.42851563 19.98632812 22.55078125 C19.98697266 23.60394531 19.98761719 24.65710938 19.98828125 25.7421875 C19.99126221 26.70237793 19.99424316 27.66256836 19.99731445 28.65185547 C19.55648129 31.87615257 18.5410971 33.76474883 16.625 36.375 C14.4375 37.1875 14.4375 37.1875 12.625 37.375 C12.625 38.035 12.625 38.695 12.625 39.375 C8.7083957 39.4330966 4.79190237 39.46862893 0.875 39.5 C-0.23617187 39.51675781 -1.34734375 39.53351562 -2.4921875 39.55078125 C-4.09707031 39.56044922 -4.09707031 39.56044922 -5.734375 39.5703125 C-6.71889648 39.58078613 -7.70341797 39.59125977 -8.71777344 39.60205078 C-11.48415641 39.36567296 -13.05894453 38.87673165 -15.375 37.375 C-19.25431159 31.9685386 -18.82259611 26.25539139 -18.75 19.875 C-18.76160156 18.85535156 -18.77320312 17.83570312 -18.78515625 16.78515625 C-18.76382207 11.31649541 -18.67731001 6.9773144 -15.375 2.375 C-10.63691704 -0.62751668 -5.42574571 0.00674844 0 0 Z " fill="#488F78" transform="translate(42.375,22.625)"/>
<path d="M0 0 C1.02867188 -0.02449219 2.05734375 -0.04898437 3.1171875 -0.07421875 C9.27020479 -0.09800619 12.98829468 0.19139292 17.625 4.375 C20.72389884 9.02334825 19.95355925 13.78342989 19.9375 19.25 C19.95361328 20.33925781 19.96972656 21.42851563 19.98632812 22.55078125 C19.98697266 23.60394531 19.98761719 24.65710938 19.98828125 25.7421875 C19.99126221 26.70237793 19.99424316 27.66256836 19.99731445 28.65185547 C19.55648129 31.87615257 18.5410971 33.76474883 16.625 36.375 C14.4375 37.1875 14.4375 37.1875 12.625 37.375 C12.625 38.035 12.625 38.695 12.625 39.375 C8.7083957 39.4330966 4.79190237 39.46862893 0.875 39.5 C-0.23617187 39.51675781 -1.34734375 39.53351562 -2.4921875 39.55078125 C-4.09707031 39.56044922 -4.09707031 39.56044922 -5.734375 39.5703125 C-6.71889648 39.58078613 -7.70341797 39.59125977 -8.71777344 39.60205078 C-11.48415641 39.36567296 -13.05894453 38.87673165 -15.375 37.375 C-19.25431159 31.9685386 -18.82259611 26.25539139 -18.75 19.875 C-18.76160156 18.85535156 -18.77320312 17.83570312 -18.78515625 16.78515625 C-18.76382207 11.31649541 -18.67731001 6.9773144 -15.375 2.375 C-10.63691704 -0.62751668 -5.42574571 0.00674844 0 0 Z M-11.375 4.375 C-11.375 5.035 -11.375 5.695 -11.375 6.375 C-13.355 7.365 -13.355 7.365 -15.375 8.375 C-15.46236736 12.10401814 -15.51551482 15.83277165 -15.5625 19.5625 C-15.58763672 20.61759766 -15.61277344 21.67269531 -15.63867188 22.75976562 C-15.64833984 23.78134766 -15.65800781 24.80292969 -15.66796875 25.85546875 C-15.6836792 26.79285889 -15.69938965 27.73024902 -15.71557617 28.69604492 C-15.29511665 32.00335842 -14.50165248 33.80433059 -12.375 36.375 C-9.8673256 37.14232619 -9.8673256 37.14232619 -7.0078125 37.0390625 C-5.43193359 37.04873047 -5.43193359 37.04873047 -3.82421875 37.05859375 C-2.17873047 37.02958984 -2.17873047 37.02958984 -0.5 37 C1.13388672 37.02900391 1.13388672 37.02900391 2.80078125 37.05859375 C7.47241416 37.03000359 10.72007514 36.87517665 14.84765625 34.59375 C17.61031062 29.59061329 17.31049737 24.86798783 17.1875 19.25 C17.20393555 17.60451172 17.20393555 17.60451172 17.22070312 15.92578125 C17.49208476 10.26836327 17.49208476 10.26836327 14.94213867 5.55786133 C12.0919124 4.10286751 10.17713723 4.03108292 6.984375 4.08203125 C5.91445313 4.09169922 4.84453125 4.10136719 3.7421875 4.11132812 C2.63101563 4.13646484 1.51984375 4.16160156 0.375 4.1875 C-0.75164063 4.20103516 -1.87828125 4.21457031 -3.0390625 4.22851562 C-5.81819264 4.26384355 -8.59635363 4.3131748 -11.375 4.375 Z " fill="#AAD6CC" transform="translate(42.375,22.625)"/>
<path d="M0 0 C2 1 2 1 3.125 3.4375 C5.88169995 7.20498993 8.48585341 7.18597357 13 8 C13 8.99 13 9.98 13 11 C14.32 11.33 15.64 11.66 17 12 C17 12.99 17 13.98 17 15 C12.71 15 8.42 15 4 15 C4 15.99 4 16.98 4 18 C8.29 18 12.58 18 17 18 C17 18.99 17 19.98 17 21 C22.445 20.01 22.445 20.01 28 19 C28.33 20.32 28.66 21.64 29 23 C24.16984638 27.29473733 19.10676635 26.51449035 12.9375 26.5 C11.83599609 26.52835938 10.73449219 26.55671875 9.59960938 26.5859375 C8.54451172 26.58851562 7.48941406 26.59109375 6.40234375 26.59375 C5.43804443 26.60083984 4.47374512 26.60792969 3.48022461 26.61523438 C1 26 1 26 -0.81494141 23.65356445 C-4.03687108 16.43907051 -2.29409515 7.31242829 0 0 Z " fill="#478E76" transform="translate(29,33)"/>
<path d="M0 0 C3.56234428 -0.08741124 7.12441108 -0.14052896 10.6875 -0.1875 C11.69490234 -0.21263672 12.70230469 -0.23777344 13.74023438 -0.26367188 C23.1579348 -0.35691643 23.1579348 -0.35691643 27 3 C30.09889884 7.64834825 29.32855925 12.40842989 29.3125 17.875 C29.32861328 18.96425781 29.34472656 20.05351563 29.36132812 21.17578125 C29.36229492 22.75552734 29.36229492 22.75552734 29.36328125 24.3671875 C29.36626221 25.32737793 29.36924316 26.28756836 29.37231445 27.27685547 C28.92480911 30.54995353 27.99358721 32.37663648 26 35 C23.02158657 37.06442347 20.5881891 37.23888035 17.015625 37.1953125 C16.08105469 37.18886719 15.14648438 37.18242188 14.18359375 37.17578125 C12.73146484 37.15064453 12.73146484 37.15064453 11.25 37.125 C10.26644531 37.11597656 9.28289063 37.10695312 8.26953125 37.09765625 C5.84610593 37.07412785 3.42317778 37.04125368 1 37 C1 36.67 1 36.34 1 36 C2.15757813 35.96261719 3.31515625 35.92523438 4.5078125 35.88671875 C6.04690561 35.82102575 7.5859667 35.75457958 9.125 35.6875 C10.26582031 35.65366211 10.26582031 35.65366211 11.4296875 35.61914062 C16.28361499 35.38899751 19.78767086 34.65731044 24 32 C26.05968056 27.88063887 25.27322097 22.59006324 25.3125 18.0625 C25.34150391 16.95197266 25.37050781 15.84144531 25.40039062 14.69726562 C25.40876953 13.63314453 25.41714844 12.56902344 25.42578125 11.47265625 C25.44036377 10.49562744 25.45494629 9.51859863 25.4699707 8.51196289 C25.21652566 5.90067094 25.21652566 5.90067094 23.28491211 4.18994141 C20.68010364 2.83340369 18.9411236 2.57747328 16.015625 2.48828125 C14.61376953 2.43510742 14.61376953 2.43510742 13.18359375 2.38085938 C11.73146484 2.34702148 11.73146484 2.34702148 10.25 2.3125 C9.26644531 2.27833984 8.28289063 2.24417969 7.26953125 2.20898438 C4.84646801 2.12664727 2.42376002 2.05745162 0 2 C0 1.34 0 0.68 0 0 Z " fill="#B1DCD2" transform="translate(33,24)"/>
<path d="M0 0 C1.4370809 -0.05422947 2.87475462 -0.09289723 4.3125 -0.125 C5.11300781 -0.14820312 5.91351563 -0.17140625 6.73828125 -0.1953125 C9 0 9 0 12 2 C11.67 3.32 11.34 4.64 11 6 C16.445 6.495 16.445 6.495 22 7 C22 7.99 22 8.98 22 10 C20.60974609 10.07347656 20.60974609 10.07347656 19.19140625 10.1484375 C17.99386719 10.22320312 16.79632813 10.29796875 15.5625 10.375 C13.77005859 10.47941406 13.77005859 10.47941406 11.94140625 10.5859375 C10.97074219 10.72257812 10.00007813 10.85921875 9 11 C8.67 11.66 8.34 12.32 8 13 C3.48780488 13.36585366 3.48780488 13.36585366 1.25 11.6875 C0 10 0 10 -1 7 C-1.99 10.465 -1.99 10.465 -3 14 C-3.33 14 -3.66 14 -4 14 C-4 10.7 -4 7.4 -4 4 C-2.68 3.34 -1.36 2.68 0 2 C0 1.34 0 0.68 0 0 Z " fill="#4B8F79" transform="translate(31,27)"/>
<path d="M0 0 C2.43868168 -0.1079859 4.87259133 -0.18726589 7.3125 -0.25 C8.00279297 -0.28351562 8.69308594 -0.31703125 9.40429688 -0.3515625 C12.7260898 -0.41575174 14.51467694 -0.43428527 17.04296875 1.828125 C18 4 18 4 17 7 C17 6.34 17 5.68 17 5 C16.01 5 15.02 5 14 5 C14.33 5.99 14.66 6.98 15 8 C12.8535247 7.88655624 10.70779408 7.75893655 8.5625 7.625 C7.36753906 7.55539063 6.17257813 7.48578125 4.94140625 7.4140625 C3.97074219 7.27742188 3.00007813 7.14078125 2 7 C1.67 6.34 1.34 5.68 1 5 C1.33 4.01 1.66 3.02 2 2 C1.34 1.34 0.68 0.68 0 0 Z " fill="#408970" transform="translate(40,27)"/>
<path d="M0 0 C4.875 0.875 4.875 0.875 6 2 C6.04063832 3.66617115 6.042721 5.33388095 6 7 C4.0085944 7.38133299 2.00720923 7.71325582 0 8 C-0.33 7.67 -0.66 7.34 -1 7 C-3.18292774 6.76518307 -5.37203174 6.58636677 -7.5625 6.4375 C-8.76003906 6.35371094 -9.95757812 6.26992188 -11.19140625 6.18359375 C-12.11824219 6.12300781 -13.04507813 6.06242187 -14 6 C-14 5.01 -14 4.02 -14 3 C-9.71 3 -5.42 3 -1 3 C-0.67 2.01 -0.34 1.02 0 0 Z " fill="#BCE7DD" transform="translate(47,45)"/>
<path d="M0 0 C1.4540625 0.0309375 1.4540625 0.0309375 2.9375 0.0625 C2.9375 1.0525 2.9375 2.0425 2.9375 3.0625 C7.2275 3.0625 11.5175 3.0625 15.9375 3.0625 C15.9375 3.7225 15.9375 4.3825 15.9375 5.0625 C14.54724609 5.13597656 14.54724609 5.13597656 13.12890625 5.2109375 C11.93136719 5.28570312 10.73382813 5.36046875 9.5 5.4375 C7.70755859 5.54191406 7.70755859 5.54191406 5.87890625 5.6484375 C4.90824219 5.78507812 3.93757813 5.92171875 2.9375 6.0625 C2.6075 6.7225 2.2775 7.3825 1.9375 8.0625 C-0.4375 8.1875 -0.4375 8.1875 -3.0625 8.0625 C-3.7225 7.4025 -4.3825 6.7425 -5.0625 6.0625 C-4.33395709 0.0884481 -4.33395709 0.0884481 0 0 Z " fill="#C9EDE6" transform="translate(37.0625,31.9375)"/>
<path d="M0 0 C1.02480469 0.00644531 2.04960938 0.01289063 3.10546875 0.01953125 C4.16894531 0.03628906 5.23242188 0.05304687 6.328125 0.0703125 C7.94654297 0.08384766 7.94654297 0.08384766 9.59765625 0.09765625 C12.25803778 0.12119945 14.91796836 0.15408451 17.578125 0.1953125 C17.578125 0.5253125 17.578125 0.8553125 17.578125 1.1953125 C10.648125 1.1953125 3.718125 1.1953125 -3.421875 1.1953125 C-3.421875 1.8553125 -3.421875 2.5153125 -3.421875 3.1953125 C3.508125 3.1953125 10.438125 3.1953125 17.578125 3.1953125 C17.578125 3.5253125 17.578125 3.8553125 17.578125 4.1953125 C9.988125 4.1953125 2.398125 4.1953125 -5.421875 4.1953125 C-5.421875 4.8553125 -5.421875 5.5153125 -5.421875 6.1953125 C-7.401875 7.1853125 -7.401875 7.1853125 -9.421875 8.1953125 C-9.23625 7.5765625 -9.050625 6.9578125 -8.859375 6.3203125 C-8.18501324 4.15371072 -8.18501324 4.15371072 -9.421875 2.1953125 C-6.16433576 0.25821612 -3.76577572 -0.04184195 0 0 Z " fill="#84B7A9" transform="translate(36.421875,22.8046875)"/>
<path d="M0 0 C3.56234428 -0.08741124 7.12441108 -0.14052896 10.6875 -0.1875 C11.69490234 -0.21263672 12.70230469 -0.23777344 13.74023438 -0.26367188 C22.95822299 -0.35493909 22.95822299 -0.35493909 27 3 C26.67 4.32 26.34 5.64 26 7 C25.39800781 6.35546875 24.79601562 5.7109375 24.17578125 5.046875 C19.61382046 2.10657063 15.5101238 2.32864186 10.1875 2.25 C9.20845703 2.22035156 8.22941406 2.19070312 7.22070312 2.16015625 C4.81372047 2.08970798 2.4076921 2.03688975 0 2 C0 1.34 0 0.68 0 0 Z " fill="#C6ECE4" transform="translate(33,24)"/>
<path d="M0 0 C1.4540625 0.0309375 1.4540625 0.0309375 2.9375 0.0625 C2.6075 0.7225 2.2775 1.3825 1.9375 2.0625 C1.6075 3.0525 1.2775 4.0425 0.9375 5.0625 C-1.0425 5.3925 -3.0225 5.7225 -5.0625 6.0625 C-3.98897059 0.08140756 -3.98897059 0.08140756 0 0 Z " fill="#96C2B6" transform="translate(37.0625,31.9375)"/>
<path d="M0 0 C0.99 0 1.98 0 3 0 C3 0.99 3 1.98 3 3 C-1.09725269 4.04167441 -4.61495224 3.94409525 -8.8125 3.5625 C-9.97394531 3.46066406 -11.13539062 3.35882813 -12.33203125 3.25390625 C-13.21246094 3.17011719 -14.09289063 3.08632813 -15 3 C-15 2.67 -15 2.34 -15 2 C-10.05 2 -5.1 2 0 2 C0 1.34 0 0.68 0 0 Z " fill="#93BCB2" transform="translate(48,48)"/>
<path d="M0 0 C0.33 0.66 0.66 1.32 1 2 C1.66 2 2.32 2 3 2 C1.25 5.875 1.25 5.875 -1 7 C-2.99960012 7.039992 -5.00047242 7.04346799 -7 7 C-6.67 6.34 -6.34 5.68 -6 5 C-4.02 5 -2.04 5 0 5 C0 3.35 0 1.7 0 0 Z " fill="#5F9F8B" transform="translate(53,47)"/>
<path d="M0 0 C1.98 0.495 1.98 0.495 4 1 C4.33 2.65 4.66 4.3 5 6 C3.02 4.68 1.04 3.36 -1 2 C-0.67 1.34 -0.34 0.68 0 0 Z " fill="#B3DFD6" transform="translate(55,25)"/>
<path d="M0 0 C0.33 0.66 0.66 1.32 1 2 C3.52733235 2.65555119 3.52733235 2.65555119 6 3 C6 3.66 6 4.32 6 5 C4.35 5 2.7 5 1 5 C0.67 3.35 0.34 1.7 0 0 Z " fill="#B4DFD4" transform="translate(33,35)"/>
</svg>
